<svg width="42" height="42" viewBox="0 0 42 42" fill="none" xmlns="http://www.w3.org/2000/svg">
<g clip-path="url(#clip0_7_17)">
<path d="M11.8077 18.8787C13.7603 20.8313 16.9262 20.8313 18.8788 18.8787C20.8314 16.9261 20.8314 13.7603 18.8788 11.8076C16.9262 9.85501 13.7603 9.85501 11.8077 11.8076C9.85511 13.7603 9.85511 16.9261 11.8077 18.8787Z" stroke="#43302C" stroke-width="6" stroke-linecap="round" stroke-linejoin="round"/>
<path d="M19.9839 19.9835L22.6355 22.6352" stroke="#43302C" stroke-width="2" stroke-linecap="round" stroke-linejoin="round"/>
<path d="M21.442 23.8284C22.101 24.4874 23.1695 24.4874 23.8285 23.8284C24.4875 23.1694 24.4875 22.1009 23.8285 21.4419C23.1695 20.7829 22.101 20.7829 21.442 21.4419C20.783 22.1009 20.783 23.1694 21.442 23.8284Z" stroke="#43302C" stroke-width="2" stroke-linecap="round" stroke-linejoin="round"/>
<path d="M19.9836 10.7027L22.6353 8.05103" stroke="#43302C" stroke-width="2" stroke-linecap="round" stroke-linejoin="round"/>
<path d="M21.442 9.24428C22.101 9.90329 23.1695 9.90329 23.8285 9.24428C24.4875 8.58527 24.4875 7.5168 23.8285 6.85779C23.1695 6.19878 22.101 6.19878 21.442 6.85779C20.783 7.5168 20.783 8.58527 21.442 9.24428Z" stroke="#43302C" stroke-width="2" stroke-linecap="round" stroke-linejoin="round"/>
<path d="M10.7029 10.7027L8.05127 8.05103" stroke="#43302C" stroke-width="2" stroke-linecap="round" stroke-linejoin="round"/>
<path d="M6.85803 9.24428C7.51704 9.90329 8.5855 9.90329 9.24451 9.24428C9.90352 8.58527 9.90352 7.5168 9.24451 6.85779C8.5855 6.19878 7.51704 6.19878 6.85803 6.85779C6.19902 7.5168 6.19902 8.58527 6.85803 9.24428Z" stroke="#43302C" stroke-width="2" stroke-linecap="round" stroke-linejoin="round"/>
<path d="M10.7026 19.9835L8.05099 22.6352" stroke="#43302C" stroke-width="2" stroke-linecap="round" stroke-linejoin="round"/>
<path d="M6.85803 23.8284C7.51704 24.4874 8.5855 24.4874 9.24451 23.8284C9.90352 23.1694 9.90352 22.1009 9.24451 21.4419C8.5855 20.7829 7.51704 20.7829 6.85803 21.4419C6.19902 22.1009 6.19902 23.1694 6.85803 23.8284Z" stroke="#43302C" stroke-width="2" stroke-linecap="round" stroke-linejoin="round"/>
<path d="M19.9839 19.9835L36.9839 36.9835" stroke="#43302C" stroke-width="3" stroke-linecap="round" stroke-linejoin="round"/>
<path d="M29.6528 29L34.9561 34.3033L31.3034 37.9561L26.0001 32.6528L29.6528 29Z" fill="#43302C" stroke="#43302C" stroke-width="2" stroke-linecap="round" stroke-linejoin="round"/>
</g>
<defs>
<clipPath id="clip0_7_17">
<rect width="34" height="34" fill="white" transform="translate(5 5)"/>
</clipPath>
</defs>
</svg>
